<svg width="50" height="50" fill="none" xmlns="http://www.w3.org/2000/svg"><circle cx="25" cy="25" r="25" fill="#000"/><mask id="a" style="mask-type:alpha" maskUnits="userSpaceOnUse" x="0" y="0" width="50" height="50"><circle cx="25" cy="25" r="25" fill="#fff"/></mask><g clip-path="url(#b)"><g filter="url(#c)"><path fill-rule="evenodd" clip-rule="evenodd" d="M3.523 24.008a3.267 3.267 0 0 1 1.75-4.352l21.653-8.836a3.267 3.267 0 0 1 4.153 1.555l10 19.85a3.267 3.267 0 0 1-1.566 4.444L17.249 46.788a3.267 3.267 0 0 1-4.338-1.648L3.523 24.008Z" fill="url(#d)"/></g><g filter="url(#e)"><path fill-rule="evenodd" clip-rule="evenodd" d="M8.768 14.682a2.94 2.94 0 0 1 2.443-3.367L35.35 7.483a2.94 2.94 0 0 1 3.365 2.443l3.678 23.165a3.05 3.05 0 0 1-2.544 3.492L15.71 40.327a2.832 2.832 0 0 1-3.23-2.352L8.768 14.682Z" fill="url(#f)"/></g><g clip-path="url(#g)" fill-rule="evenodd" clip-rule="evenodd"><path d="m25.154 21.629 6.052-.959-.914-5.772-11.995 1.9.009.053 6.848 4.778Z" fill="url(#h)"/><path d="m25.154 21.629-6.052.958.914 5.773 11.995-1.9-.009-.053-6.848-4.778Z" fill="url(#i)"/><path d="m20.016 28.36 5.997-.95.923 5.826-6.92-4.876Z" fill="url(#j)"/></g></g><defs><linearGradient id="d" x1="-7.03" y1="31.838" x2="16.029" y2="54.443" gradientUnits="userSpaceOnUse"><stop stop-color="#00F3FF"/><stop offset=".358" stop-color="#00A8FC"/><stop offset="1" stop-color="#0048DF"/></linearGradient><linearGradient id="f" x1="8.307" y1="11.766" x2="12.913" y2="40.848" gradientUnits="userSpaceOnUse"><stop stop-color="#fff"/><stop offset=".49" stop-color="#fff"/><stop offset="1" stop-color="#D9F3FF"/></linearGradient><linearGradient id="h" x1="30.741" y1="15.189" x2="20.149" y2="15.224" gradientUnits="userSpaceOnUse"><stop stop-color="#8DE4FF"/><stop offset="1" stop-color="#30CEFF"/></linearGradient><linearGradient id="i" x1="31.148" y1="21.015" x2="20.515" y2="22.7" gradientUnits="userSpaceOnUse"><stop stop-color="#00C5FF"/><stop offset="1" stop-color="#009AFF"/></linearGradient><linearGradient id="j" x1="20.016" y1="28.36" x2="20.939" y2="34.186" gradientUnits="userSpaceOnUse"><stop stop-color="#005AFF"/><stop offset="1" stop-color="#008DFF"/></linearGradient><clipPath id="b"><path fill="#fff" transform="translate(2 7)" d="M0 0h41v42H0z"/></clipPath><clipPath id="g"><path fill="#fff" transform="rotate(-9 115.922 -107.139)" d="M0 0h12.318v17.635H0z"/></clipPath><filter id="c" x="3.24" y="10.577" width="38.189" height="36.505" filterUnits="userSpaceOnUse" color-interpolation-filters="sRGB"><feFlood flood-opacity="0" result="BackgroundImageFix"/><feBlend in="SourceGraphic" in2="BackgroundImageFix" result="shape"/><feColorMatrix in="SourceAlpha" values="0 0 0 0 0 0 0 0 0 0 0 0 0 0 0 0 0 0 127 0" result="hardAlpha"/><feOffset/><feGaussianBlur stdDeviation=".5"/><feComposite in2="hardAlpha" operator="arithmetic" k2="-1" k3="1"/><feColorMatrix values="0 0 0 0 1 0 0 0 0 1 0 0 0 0 1 0 0 0 0.478261 0"/><feBlend in2="shape" result="effect1_innerShadow_0_49"/></filter><filter id="e" x="6.731" y="7.446" width="39.699" height="38.915" filterUnits="userSpaceOnUse" color-interpolation-filters="sRGB"><feFlood flood-opacity="0" result="BackgroundImageFix"/><feColorMatrix in="SourceAlpha" values="0 0 0 0 0 0 0 0 0 0 0 0 0 0 0 0 0 0 127 0" result="hardAlpha"/><feOffset dx="1" dy="3"/><feGaussianBlur stdDeviation="1.5"/><feColorMatrix values="0 0 0 0 0 0 0 0 0 0 0 0 0 0 0 0 0 0 1 0"/><feBlend in2="BackgroundImageFix" result="effect1_dropShadow_0_49"/><feBlend in="SourceGraphic" in2="effect1_dropShadow_0_49" result="shape"/><feColorMatrix in="SourceAlpha" values="0 0 0 0 0 0 0 0 0 0 0 0 0 0 0 0 0 0 127 0" result="hardAlpha"/><feOffset dy="1"/><feGaussianBlur stdDeviation=".5"/><feComposite in2="hardAlpha" operator="arithmetic" k2="-1" k3="1"/><feColorMatrix values="0 0 0 0 1 0 0 0 0 1 0 0 0 0 1 0 0 0 0.26087 0"/><feBlend in2="shape" result="effect2_innerShadow_0_49"/></filter></defs></svg>