<svg width="38" height="29" fill="none" xmlns="http://www.w3.org/2000/svg"><rect width="38" height="29" rx="3" fill="#F4F4F4"/><mask id="a" fill="#fff"><path fill-rule="evenodd" clip-rule="evenodd" d="M27 12v10H11V7h11"/></mask><path d="M27 22v1h1v-1h-1Zm-16 0h-1v1h1v-1Zm15-10v10h2V12h-2Zm1 9H11v2h16v-2Zm-15 1V7h-2v15h2ZM11 8h11V6H11v2Z" fill="#979797" mask="url(#a)"/><path stroke="#979797" d="m27.192 5.707 1.414 1.414-8.485 8.485-1.414-1.414z"/><path stroke="#979797" d="m27.192 5.707 1.414 1.414-8.485 8.485-1.414-1.414z"/><path fill="#8C8C8C" stroke="#979797" stroke-width=".5" d="M18.25 15.25h1.5v.5h-1.5z"/><path fill="#8C8C8C" d="M17 16h1v1h-1z"/></svg>